<svg width="220" height="89" viewBox="0 0 220 89" fill="none" xmlns="http://www.w3.org/2000/svg">
<path d="M141.759 44.0605V39.0264H117.563V78H122.922V61.0032H138.511V55.9691H122.922V44.0605H141.759ZM167.746 78V44.0605H179.871V39.0264H150.262V44.0605H162.387V78H167.746ZM217.756 67.4446C217.756 60.083 211.639 58.026 205.793 56.4563C199.947 54.9406 195.021 54.1828 195.021 49.4194C195.021 45.6303 198.864 43.4109 202.978 43.4109C208.012 43.4109 211.206 46.4963 211.639 50.4478H217.214C216.24 43.3568 211.044 38.4851 202.978 38.4851C195.183 38.4851 189.446 43.3568 189.446 49.5276C189.446 56.9976 195.508 59.0545 201.408 60.6243C207.2 62.0858 212.18 62.8977 212.18 67.6612C212.18 71.2879 208.283 73.6155 203.79 73.6155C198.052 73.6155 194.642 70.909 193.993 66.0373H188.309C188.959 72.9118 194.101 78.5413 203.79 78.5413C212.343 78.5413 217.756 73.8861 217.756 67.4446Z" fill="white"/>
<path d="M112.718 3C112.718 3 91.1902 76.4171 75.4839 76.4171C67.274 76.4171 62.4552 59.9895 58 44.308L85.2317 23.75L112.718 3Z" fill="url(#paint0_linear_79_315)"/>
<path d="M44.6269 16.293C32.5452 16.293 3 86.0006 3 86.0006L57.972 44.5006L58.2264 44.3086C54.1583 29.9897 50.3934 16.293 44.6269 16.293Z" fill="url(#paint1_linear_79_315)"/>
<path d="M3 86C3 86 32.5452 16.2924 44.6269 16.2924C56.7087 16.2924 60.0039 76.4171 75.7102 76.4171C91.4165 76.4171 112.944 3 112.944 3" stroke="white" stroke-width="6" stroke-linecap="round"/>
<defs>
<linearGradient id="paint0_linear_79_315" x1="58" y1="38.5" x2="85" y2="68.5" gradientUnits="userSpaceOnUse">
<stop offset="0.266248" stop-color="white" stop-opacity="0"/>
<stop offset="1" stop-color="white"/>
</linearGradient>
<linearGradient id="paint1_linear_79_315" x1="28.5" y1="24.501" x2="51.5" y2="54.001" gradientUnits="userSpaceOnUse">
<stop stop-color="white"/>
<stop offset="0.893425" stop-color="white" stop-opacity="0"/>
</linearGradient>
</defs>
</svg>
